<svg width="528" height="544" viewBox="0 0 528 544" fill="none" xmlns="http://www.w3.org/2000/svg">
    <path class="body"
        d="M94.8056 535.469H55.1811C49.2057 535.469 43.4236 533.351 38.862 529.491C35.0104 526.232 32.2229 521.894 30.8585 517.037L12.3906 451.291C9.47786 440.922 8.00085 430.202 8.00085 419.432V347.138C8.00085 337.336 9.34408 327.581 11.9931 318.144C14.642 308.707 15.9852 298.951 15.9852 289.15V248.543C15.9852 235.815 19.5545 223.342 26.2875 212.541C35.0826 198.433 38.0567 181.593 37.4409 164.979C37.0661 154.867 37.461 143.586 39.9384 134.752C42.4403 125.832 43.7558 120.486 48.9209 112.795C54.2224 104.901 58.4725 101.1 66.3867 95.8283C74.1601 90.6503 79.7178 89.9286 88.3438 86.3468C102.248 80.5734 111.467 80.2892 124.274 72.3742C131.834 67.7014 134.745 63.1802 142.238 58.4015C149.808 53.5747 154.377 51.2913 162.698 47.922C170.64 44.7062 175.229 42.9741 183.657 41.4346C183.928 41.3853 184.205 41.3374 184.487 41.291C193.128 39.8729 200.125 32.9904 200.125 24.2346C200.125 15.2685 207.394 8 216.36 8H311.79C320.949 8 328.375 15.4253 328.375 24.5848C328.375 33.453 335.367 40.702 344.153 41.904C348.525 42.5021 353.089 43.3215 356.819 44.4288C367.101 47.4812 372.556 50.4163 381.77 55.9063C390.978 61.3928 394.431 67.0391 403.727 72.3742C414.807 78.7327 422.317 79.5809 434.168 84.3507C442.762 87.81 448.075 88.7478 456.125 93.3332C463.035 97.269 467.034 99.6231 472.593 105.31C477.47 110.3 480.085 113.475 483.072 119.781C485.926 125.806 486.194 129.726 487.563 136.249C489.39 144.952 489.852 155.92 489.775 165.687C489.651 181.583 493.043 197.486 501.326 211.055C508.317 222.509 512.016 235.668 512.016 249.087V289.15C512.016 298.951 513.359 308.707 516.008 318.144C518.657 327.581 520 337.336 520 347.138V417.977C520 428.392 518.619 438.76 515.893 448.812L497.999 514.798C496.72 519.514 494.229 523.813 490.774 527.268C485.523 532.519 478.401 535.469 470.976 535.469H430.176C428.696 535.349 427.79 534.96 426.682 533.972C424.215 531.769 424.87 527.812 425.232 524.524L428.208 497.467C429.512 485.61 429.008 473.623 426.713 461.917L417.406 414.455C415.942 406.987 415.205 399.396 415.205 391.786V355.763C415.205 344.323 412.467 333.05 407.22 322.884L400.185 309.253C399.561 308.045 399.236 306.706 399.236 305.346V296.408C399.236 292.819 395.072 290.837 392.286 293.1C391.613 293.648 391.122 294.388 390.88 295.221L382.361 324.598C378.709 337.192 378.542 350.541 381.879 363.222L383.282 368.55C383.935 371.032 384.265 373.587 384.265 376.153V376.516C384.265 379.663 383.73 382.786 382.683 385.753C379.896 393.65 380.823 402.382 385.206 409.517L392.094 420.731C397.103 428.883 399.911 438.195 400.247 447.757L400.284 448.828C400.58 457.255 402.667 465.522 406.405 473.081L419.766 500.094C422.346 505.309 423.688 511.05 423.688 516.868V526.486C423.688 528.43 423.058 530.321 421.892 531.876C420.195 534.138 417.632 535.469 414.805 535.469H115.27C111.373 535.469 107.17 534.403 105.311 530.978C103.917 528.411 103.82 523.802 103.814 523.087C103.813 523.022 103.814 522.961 103.814 522.896C103.814 513.128 106.195 503.507 110.753 494.867L119.668 477.964C124.987 467.881 127.767 456.653 127.767 445.253C127.767 437.908 128.612 430.472 131.724 423.819C133.068 420.948 134.632 418.149 136.749 414.705C138.239 412.282 140.259 409.555 142.262 407.028C146.623 401.525 147.947 394.09 145.181 387.637C144.227 385.412 143.736 383.016 143.736 380.596V376.871C143.736 373.828 144.121 370.797 144.883 367.851L146.137 363.001C149.467 350.126 149.332 336.599 145.746 323.793L137.684 294.997C137.402 293.991 136.782 293.113 135.929 292.511C132.919 290.386 128.765 292.538 128.765 296.223V303.803C128.765 305.192 128.424 306.559 127.771 307.784L120.531 321.387C115.125 331.545 112.297 342.875 112.297 354.382V391.412C112.297 399.269 111.511 407.107 109.951 414.807L99.8507 464.656C97.8497 474.532 97.5482 484.676 98.9591 494.654L103.341 525.641C103.645 527.789 103.128 529.972 101.893 531.755C100.283 534.081 97.6344 535.469 94.8056 535.469Z"
        fill="#fff" stroke="#F97316" stroke-width="15.2696" />
    <path class="traps-right"
        d="M354.441 43.4314C349.728 41.9698 343.686 40.9284 338.374 40.2188C331.63 39.318 325.878 44.6995 325.878 51.5037V75.369L400.732 72.3748C400.732 72.3748 388.28 60.6384 379.063 54.909C370.041 49.3005 364.561 46.5706 354.441 43.4314Z"
        fill="#fff" stroke="#F97316" stroke-width="7.63482" />
    <path class="traps-left"
        d="M173.675 44.928C178.502 43.4504 184.707 42.4023 190.132 41.6923C196.875 40.8099 202.619 46.1895 202.619 52.9897V76.8656L126.767 73.8714C126.767 73.8714 139.384 62.1349 148.724 56.4056C157.866 50.7971 163.419 48.0671 173.675 44.928Z"
        fill="#fff" stroke="#F97316" stroke-width="7.63482" />
    <path class="elbow-right"
        d="M436.19 394.671L463.481 344.42C464.22 343.059 464.608 341.534 464.608 339.985C464.608 333.442 458.027 328.948 451.933 331.328L435.102 337.903C433.495 338.53 431.785 338.853 430.06 338.853C422.407 338.853 416.202 345.057 416.202 352.71V389.594C416.202 395.47 420.965 400.233 426.841 400.233C430.741 400.233 434.328 398.099 436.19 394.671Z"
        fill="#fff" stroke="#F97316" stroke-width="7.63482" />
    <path class="elbow-left"
        d="M91.3109 394.671L64.0194 344.42C63.28 343.059 62.8927 341.534 62.8927 339.985C62.8927 333.442 69.4735 328.948 75.5679 331.328L92.3987 337.903C94.0056 338.53 95.7156 338.853 97.4407 338.853C105.094 338.853 111.298 345.057 111.298 352.71V389.594C111.298 395.47 106.535 400.233 100.66 400.233C96.7596 400.233 93.1722 398.099 91.3109 394.671Z"
        fill="#fff" stroke="#F97316" stroke-width="7.63482" />
    <path class="biceps-left"
        d="M54.2117 231.31V226.182C54.2117 219.822 59.8727 214.954 66.1604 215.907C69.04 216.343 71.9706 215.551 74.2383 213.724L90.8102 200.367C99.1268 193.664 110.233 191.539 120.437 194.697L122.882 195.453C124.334 195.903 125.847 196.132 127.367 196.132H133.217C138.365 196.132 142.539 200.306 142.539 205.454C142.539 206.223 142.444 206.988 142.256 207.734L130.896 252.781C129.015 260.242 127.869 267.869 127.475 275.554L127.069 283.461V285.898C127.069 297.404 124.242 308.734 118.835 318.892L110.911 333.78C110.708 334.162 110.601 334.588 110.601 335.021C110.601 336.354 109.611 337.475 108.283 337.589C104.91 337.88 98.5689 338.24 94.1337 337.356C87.709 336.076 84.7634 333.258 78.6639 330.868C72.2925 328.372 68.2858 328.002 62.1961 324.88C58.5377 323.005 56.303 322.103 53.2137 319.391C50.1945 316.74 49.0126 314.71 46.7264 311.406C44.5391 308.246 43.3339 306.419 41.7361 302.923C39.8658 298.831 38.8837 296.398 38.2429 291.945C37.6879 288.087 38.0308 285.856 38.2429 281.964C39.0751 266.7 48.5576 246.28 52.5043 238.375C53.6024 236.175 54.2117 233.769 54.2117 231.31Z"
        fill="#fff" stroke="#F97316" stroke-width="7.63482" />
    <path class="biceps-right"
        d="M472.594 231.31V226.182C472.594 219.822 466.933 214.954 460.645 215.907C457.765 216.343 454.835 215.551 452.567 213.724L435.995 200.367C427.679 193.664 416.572 191.539 406.368 194.697L403.924 195.453C402.471 195.903 400.959 196.132 399.438 196.132H393.589C388.44 196.132 384.266 200.306 384.266 205.454C384.266 206.223 384.361 206.988 384.549 207.734L395.909 252.781C397.791 260.242 398.937 267.869 399.331 275.554L399.736 283.461V285.898C399.736 297.404 402.564 308.734 407.97 318.892L415.894 333.78C416.098 334.162 416.204 334.588 416.204 335.021C416.204 336.354 417.194 337.475 418.523 337.589C421.896 337.88 428.237 338.24 432.672 337.356C439.096 336.076 442.042 333.258 448.141 330.868C454.513 328.372 458.52 328.002 464.609 324.88C468.268 323.005 470.502 322.103 473.592 319.391C476.611 316.74 477.793 314.71 480.079 311.406C482.266 308.246 483.471 306.419 485.069 302.923C486.94 298.831 487.922 296.398 488.562 291.945C489.118 288.087 488.775 285.856 488.562 281.964C487.73 266.7 478.248 246.28 474.301 238.375C473.203 236.175 472.594 233.769 472.594 231.31Z"
        fill="white" stroke="#F97316" stroke-width="7.63482" />
    <path class="shoulder-right"
        d="M456.109 97.3177C436.953 85.566 424.764 80.1943 402.713 75.8596C369.343 69.2998 343.329 101.424 343.329 135.434V153.76C343.329 181.292 365.648 203.61 393.179 203.61H395.864C399.081 203.61 402.28 203.126 405.353 202.175C415.557 199.017 426.664 201.142 434.98 207.845L448.597 218.82C452.748 222.165 458.112 223.615 463.383 222.817C468.609 222.025 473.271 219.093 476.249 214.726L478.689 211.147C478.939 210.78 479.178 210.413 479.407 210.032C480.71 207.87 485.396 199.936 487.548 194.128C494.793 174.575 492.001 161.104 487.548 140.733C486.072 133.986 485.472 130.027 482.557 123.766C479.592 117.396 477.441 113.865 472.577 108.795C467.15 103.139 462.791 101.417 456.109 97.3177Z"
        fill="#F97316" stroke="#F97316" stroke-width="7.63482" />
    <path class="shoulder-left"
        d="M71.361 97.3177C90.5166 85.566 102.706 80.1943 124.757 75.8596C158.127 69.2998 184.141 101.424 184.141 135.434V153.76C184.141 181.292 161.822 203.61 134.291 203.61H131.606C128.389 203.61 125.19 203.126 122.117 202.175C111.913 199.017 100.806 201.142 92.4897 207.845L78.8728 218.82C74.7222 222.165 69.3582 223.615 64.0874 222.817C58.8607 222.025 54.1993 219.093 51.2213 214.726L48.4059 210.596C42.7917 199.698 38.9453 187.928 38.2848 175.687C37.6964 164.779 37.6529 151.113 39.9225 140.733C41.3976 133.986 41.9977 130.027 44.9127 123.766C47.8783 117.396 50.0285 113.865 54.8932 108.795C60.3203 103.139 64.6792 101.417 71.361 97.3177Z"
        fill="#F97316" stroke="#F97316" stroke-width="7.63482" />
    <path class="back"
        d="M162.698 403.228C157.594 399.458 154.441 397.39 150.721 392.25C147.194 387.376 145.368 384.185 144.234 378.277C143.352 373.684 143.906 370.966 144.234 366.3C144.365 364.432 144.642 362.419 145.014 360.355C147.835 344.72 149.386 328.607 145.062 313.319L140.154 295.966C138.598 290.467 135.163 285.687 130.446 282.46C128.996 281.468 127.658 280.322 126.454 279.043L125.625 278.162C117.319 269.336 114.074 256.891 117.013 245.134L118.87 237.704C124.392 215.619 144.235 200.125 167.001 200.125H361.585C384.564 200.125 404.567 215.832 410.016 238.156L411.977 246.192C414.624 257.034 411.788 268.485 404.389 276.839L402.803 278.629C401.432 280.178 399.82 281.496 398.029 282.532C393.683 285.049 390.49 289.161 389.128 293.996L383.941 312.418C379.342 328.754 382.772 345.968 385.418 362.732C385.887 365.705 386.06 368.627 385.762 371.291C384.842 379.498 383.278 384.328 378.775 391.252C375.244 396.682 372.216 399.012 367.298 403.228C360.114 409.385 352.889 408.929 346.838 416.203C342.879 420.962 341.365 424.321 339.352 430.176C336.736 437.788 339.074 442.897 336.857 450.635C335.532 455.263 334.705 457.906 332.366 462.113C326.593 472.5 313.807 476.086 301.923 476.086H226.836C216.72 476.086 206.976 472.276 199.543 465.414C198.6 464.545 197.696 463.636 196.901 462.63C195.361 460.68 192.836 457.144 192.14 454.129C191.395 450.901 192.351 448.952 192.14 445.645C191.826 440.721 191.46 437.925 190.144 433.17C187.75 424.517 186.058 419.012 179.665 412.71C174.259 407.381 168.803 407.738 162.698 403.228Z"
        fill="#f5f5f5" stroke="#F97316" stroke-width="7.63482" />
    <path class="abs-back"
        d="M200.255 430.82L208.343 454.746C211.859 465.146 220.552 472.954 231.269 475.336C233.505 475.832 235.788 476.083 238.078 476.083H290.381C292.933 476.083 295.479 475.818 297.976 475.292C309.319 472.904 318.993 465.36 323.1 454.52C325.529 448.11 327.942 440.903 329.17 434.83C331.966 421.006 330.972 401.444 330.041 390.272C329.594 384.909 331.999 379.66 336.476 376.675C338.449 375.359 340.062 373.571 341.166 371.472L352.202 350.504C355.138 344.926 356.672 338.718 356.672 332.415C356.672 323.431 359.786 314.725 365.485 307.779L365.839 307.348C371.767 300.124 375.006 291.068 375.006 281.723V238.594C375.006 233.056 370.517 228.567 364.98 228.567C359.442 228.567 354.953 233.056 354.953 238.594V244.772C354.953 249.07 353.245 253.192 350.206 256.232L338.836 267.602C328.978 277.46 315.609 282.998 301.668 282.998H288.809C283.102 282.998 277.629 280.73 273.593 276.695C268.375 272.023 260.478 272.023 255.259 276.695C250.848 280.738 245.041 282.914 239.059 282.764L223.323 282.371C209.999 282.038 197.328 276.53 187.995 267.014L178.097 256.922C175.039 253.805 173.326 249.612 173.326 245.245V238.021C173.326 232.799 169.094 228.567 163.873 228.567C158.652 228.567 154.419 232.799 154.419 238.021V281.279C154.419 290.576 157.435 299.623 163.013 307.062L163.808 308.121C168.871 314.872 171.608 323.082 171.608 331.52C171.608 337.664 173.059 343.72 175.843 349.196L186.99 371.118C188.17 373.439 189.98 375.381 192.213 376.72C197.071 379.635 199.663 385.204 199.057 390.836C197.865 401.91 196.68 420.243 200.255 430.82Z"
        fill="#F97316" stroke="#F97316" stroke-width="8.7659" />
    <path class="abs-line"
        d="M185.36 368.395L171.551 341.567C171.306 341.09 171.116 340.587 170.986 340.066C169.389 333.679 176.712 328.836 181.964 332.804L194.141 342.004C195.155 342.77 196.281 343.375 197.48 343.798L200.299 344.793C203.683 345.987 207.244 346.597 210.832 346.597H246.59C249.643 346.597 252.645 345.808 255.303 344.305L256.106 343.852C261.237 340.951 267.54 341.077 272.552 344.179C275.105 345.76 278.049 346.597 281.052 346.597H316.709C322.635 346.597 328.472 345.155 333.716 342.395L335.761 341.319C336.331 341.019 336.873 340.668 337.38 340.272L346.511 333.132C351.737 329.045 359.159 333.96 357.437 340.367C357.309 340.843 357.13 341.304 356.904 341.742L342.753 369.163C340.852 372.847 338.027 375.973 334.554 378.237C330.666 380.771 326.125 382.121 321.484 382.121H207.862C203.26 382.121 198.745 380.866 194.802 378.491C190.779 376.067 187.509 372.571 185.36 368.395Z"
        fill="#F97316" stroke="#F5F5F5" stroke-width="8.7659" />
    <path class="chest-left"
        d="M263.002 215.095V158.075C263.002 130.337 247.292 104.991 222.451 92.6493C199.064 81.0306 170.563 82.2186 152.369 100.951C141.87 111.76 132.061 124.721 128.764 137.747C124.364 155.128 125.059 166.115 128.764 183.657C133.954 208.233 139.324 225.362 159.703 240.047C180.11 254.751 209.772 262.17 223.08 251.524C236.387 240.878 263.002 218.688 263.002 215.095Z"
        fill="#fff" stroke="#F97316" stroke-width="7.63482" />
    <path class="chest-right"
        d="M263.501 215.095V158.075C263.501 130.337 279.21 104.991 304.052 92.6493C327.438 81.0306 355.94 82.2186 374.134 100.951C384.633 111.76 394.441 124.721 397.739 137.747C402.139 155.128 401.443 166.115 397.739 183.657C392.549 208.233 387.178 225.362 366.799 240.047C346.393 254.751 316.73 262.17 303.423 251.524C290.116 240.878 263.501 218.688 263.501 215.095Z"
        fill="#fff" stroke="#F97316" stroke-width="7.63482" />
    <circle class="nipple-right" cx="347.336" cy="228.569" r="9.98049" fill="#F97316" />
    <circle class="nipple-left" cx="173.674" cy="228.569" r="9.98049" fill="#F97316" />
    <path class="triceps-right"
        d="M508.661 223.201L504.201 216.064C497.503 205.349 481.849 205.491 475.348 216.327C473.869 218.792 473.042 221.594 472.946 224.467L472.843 227.567C472.679 232.479 473.784 237.342 475.897 241.778C478.378 246.989 481.664 254.265 483.572 260.008C485.42 265.571 486.596 268.697 487.564 274.479C488.339 279.108 488.448 281.764 488.562 286.456C488.61 288.404 488.727 289.504 488.562 291.446C488.377 293.617 488.137 294.833 487.564 296.936C486.555 300.639 485.378 302.531 483.572 305.918C481.842 309.162 480.757 310.938 478.582 313.902C476.781 316.357 475.846 317.845 473.591 319.891C468.826 324.215 464.609 329.504 464.609 335.939V340.83C464.609 341.826 464.365 342.807 463.899 343.687C461.185 348.814 466.479 354.481 471.779 352.121L504.851 337.393C513.27 333.644 517.676 324.297 515.209 315.417L513.038 307.601C512.36 305.16 512.016 302.637 512.016 300.103V234.899C512.016 230.763 510.854 226.709 508.661 223.201Z"
        fill="#fff" stroke="#F97316" stroke-width="7.63482" />
    <path class="triceps-left"
        d="M18.8403 223.201L23.3008 216.064C29.9981 205.349 45.6523 205.491 52.1538 216.327C53.633 218.792 54.4595 221.594 54.5553 224.467L54.6586 227.567C54.8223 232.479 53.7174 237.342 51.6047 241.778C49.1236 246.989 45.8375 254.265 43.9297 260.008C42.0813 265.571 40.9052 268.697 39.9375 274.479C39.1628 279.108 39.0539 281.764 38.9394 286.456C38.8919 288.404 38.7742 289.504 38.9394 291.446C39.1242 293.617 39.3647 294.833 39.9375 296.936C40.9467 300.639 42.1234 302.531 43.9297 305.918C45.6599 309.162 46.7445 310.938 48.9199 313.902C50.721 316.357 51.6559 317.845 53.9102 319.891C58.6752 324.215 62.8926 329.504 62.8926 335.939V340.83C62.8926 341.826 63.1362 342.807 63.6021 343.687C66.3164 348.814 61.0222 354.481 55.7228 352.121L22.6505 337.393C14.2314 333.644 9.82565 324.297 12.2923 315.417L14.4632 307.601C15.1415 305.16 15.4853 302.637 15.4853 300.103V234.899C15.4853 230.763 16.6478 226.709 18.8403 223.201Z"
        fill="#fff" stroke="#F97316" stroke-width="7.63482" />
    <path class="forearm-right"
        d="M449.209 370.338L435.506 395.877C434.066 398.559 431.269 400.233 428.225 400.233C423.028 400.233 419.121 404.974 420.115 410.075L431.501 468.522C432.606 474.196 432.847 480.005 432.215 485.752L427.962 524.413C427.778 526.085 428.129 527.772 428.963 529.232L429.032 529.353C429.457 530.097 430.012 530.759 430.671 531.308C431.962 532.384 433.59 532.973 435.271 532.973H470.844C477.714 532.973 484.303 530.244 489.161 525.386C492.364 522.183 494.671 518.197 495.852 513.824L515.388 441.498C516.792 436.3 517.504 430.94 517.504 425.556V387.503C517.504 361.29 490.572 343.716 466.578 354.274C459.157 357.539 453.043 363.194 449.209 370.338Z"
        fill="#fff" stroke="#F97316" stroke-width="7.63482" />
    <path class="forearm-left"
        d="M76.2947 372.835L89.9984 398.374C91.4377 401.056 94.2351 402.729 97.279 402.729C102.476 402.729 106.383 407.47 105.389 412.572L94.0034 471.019C92.898 476.693 92.6572 482.502 93.2893 488.248L97.5421 526.909C97.7259 528.581 97.3755 530.268 96.5411 531.728L96.4719 531.85C96.0467 532.594 95.4917 533.256 94.8332 533.805C93.5419 534.881 91.9142 535.47 90.2333 535.47H54.6604C47.7901 535.47 41.2011 532.741 36.343 527.883C33.1402 524.68 30.8332 520.693 29.652 516.32L10.1158 443.995C8.7118 438.797 8.00059 433.437 8.00059 428.053V390C8.00059 363.786 34.9322 346.213 58.9259 356.77C66.3469 360.035 72.4613 365.691 76.2947 372.835Z"
        fill="#fff" stroke="#F97316" stroke-width="7.63482" />
</svg>