<svg viewBox="0 0 512 512" fill="none" xmlns="http://www.w3.org/2000/svg">
<path d="M379.1 71.6C376.4 75.1 376.4 79.2 379.3 82.6C381.1 84.6 382.8 85.4 387.3 85.9L392.9 86.5L385 95.9C375.9 106.6 374.9 110 379.5 114.5C381.9 117 382.2 117 399 117C415.8 117 416.1 117 418.5 114.5C421.2 111.9 421.7 108.5 419.9 104.6C418.5 101.5 416.9 100.8 410.1 100.1L404.6 99.5L411.1 92C414.7 87.9 418.4 83.4 419.3 82C421.7 78.5 421.4 74.3 418.5 71.5C416.1 69 415.8 69 398.6 69H381.1L379.1 71.6Z" fill="#4184FD"/>
<path d="M327.9 102.9C324.8 106 324.3 108.8 326.2 112.3C328.1 116 330.2 116.9 336.3 117H342.2L333.9 126.7C326.6 135.1 325.5 136.8 325.5 140.2C325.5 142.8 326.2 144.7 327.8 146.2C329.9 148.3 331.1 148.5 344.2 148.8C360.3 149.2 364.3 148.7 367.1 145.9C369.9 143.1 369.7 137 366.7 134.2C364.9 132.5 363.1 132 358.7 132C355.6 132 353 131.7 353 131.4C353 131 355.6 127.8 358.8 124.1C362 120.5 365.6 116.2 366.8 114.6C369.8 110.7 369.7 105.6 366.5 102.5C364.1 99.9999 363.8 99.9999 347.5 99.9999H330.8L327.9 102.9Z" fill="#4184FD"/>
<path d="M212 107C195.1 109.4 180.7 120.1 173.4 135.5C169.4 144 168 151.9 168 166.9C168 176.8 168.2 178.1 169.6 177.6C170.5 177.3 172 177 173.1 177C174.7 177 175 176.3 175 171.5C175 166.9 175.4 165.5 177.5 163.5C178.8 162.1 180.3 161 180.8 161C181.3 161 196.4 157.9 214.5 154.1L247.2 147.1L267.3 154.5C280.2 159.3 288.1 162.7 289.3 164.1C290.4 165.5 291 168 291 171.6C291 176.3 291.3 177 292.9 177C294 177 295.5 177.3 296.4 177.6C297.8 178.2 298 175.5 298 151.9C298 122.4 297.6 120.4 291.1 116.6C286.3 113.8 280.7 114.2 272.3 117.8C268.4 119.6 264.8 121 264.3 121C263.8 121 260.6 119.2 257.2 116.9C246.3 109.9 238.9 107.5 225.5 106.6C221.1 106.4 215 106.5 212 107Z" fill="#4184FD"/>
<path d="M216.3 168.8L190 174.5V198.6C190 211.9 190.5 225.1 191 228C194.4 245.9 208.6 259.4 226.9 262.3C245.5 265.1 263.4 255.5 271.9 238L275.5 230.5L275.8 202L276.1 173.5L261.7 168.2C253.7 165.4 246.2 163 244.9 163.1C243.6 163.1 230.7 165.7 216.3 168.8Z" fill="#4184FD"/>
<path d="M167.1 193.8C163.1 195.9 160 201.1 160 205.5C160 212 166.6 219 172.7 219C175 219 175 218.9 175 205.5C175 192.1 175 192 172.7 192C171.5 192 168.9 192.8 167.1 193.8Z" fill="#4184FD"/>
<path d="M291 205.5C291 218.4 291.1 219 293 219C296.9 219 302 216.1 304 212.8C309.3 204 303 192 293 192C291.1 192 291 192.6 291 205.5Z" fill="#4184FD"/>
<path d="M102.9 229.7C92.4999 235.1 88.1999 247.5 93.2999 258.1C96.0999 264 116.9 294.2 118.5 294.7C119.2 294.9 151.5 270.8 154.6 267.7C154.9 267.5 153.7 265.9 152 264.2C148.1 260.3 147.9 256 151.6 253.1C153.1 251.9 155.2 251 156.4 251C157.6 251 167.3 257.7 179 266.6L199.5 282.2L199.8 275.1L200.1 267.9L193.2 261.2C185.9 254.1 181.9 247.9 179 239.6C177.2 234.5 177.1 234.5 172 233.9C166.3 233.1 161.8 231.5 157.8 228.8C155.5 227.2 152.8 227 131.8 227H108.4L102.9 229.7Z" fill="#4184FD"/>
<path d="M308.2 229C305.4 231.3 297 234 292.5 234C289.5 234 289.1 234.4 287.1 239.8C284.2 247.9 278.3 256.6 272.1 262.2L266.9 266.9L267.2 274.3L267.5 281.7L286.9 266.8C297.6 258.6 307.5 251.7 308.8 251.3C311.8 250.6 315.5 252.5 316.9 255.6C318.2 258.5 317.5 260.6 313.9 264.5L311.2 267.5L329 281.2C338.8 288.8 347.2 295 347.7 295C348.7 294.9 370.8 263.1 373.3 258.1C374.6 255.5 375 252.7 374.8 247.9C374.4 240 371.3 234.6 364.8 230.3L360.7 227.5L335.6 227.2C311.8 227 310.4 227.1 308.2 229Z" fill="#4184FD"/>
<path d="M215 283.1C215 292.9 216.6 296.8 222.3 301.4C225.8 304.2 226.9 304.5 232.9 304.5C245.2 304.5 251.1 297.9 251.8 283.1L252.3 274.7L249.9 275.4C241.8 277.6 232.7 278.3 225.7 277.2C221.7 276.6 217.6 275.8 216.7 275.4C215.2 274.9 215 275.7 215 283.1Z" fill="#4184FD"/>
<path d="M149.5 290.3C140.1 297.6 131.2 304.5 129.6 305.7L126.8 307.9L141.5 329.1C149.5 340.7 156.5 351.3 157.1 352.7C157.6 354.1 158 374 158 399.1V443H233.5H309V397.9C309 365.5 309.3 352.3 310.2 350.7C310.8 349.5 317.4 339.8 324.8 329.1C332.2 318.5 338.3 309.2 338.4 308.5C338.5 307.2 300.4 277 298.7 277C297.3 277 264.9 302.1 257.7 308.8C248.6 317.3 243.7 319.5 233.5 319.5C226.4 319.5 224.7 319.1 218.8 316.2C215.2 314.4 210.7 311.3 208.9 309.2C205.3 305.1 169.1 277 167.5 277.1C167 277.1 158.8 283 149.5 290.3Z" fill="#4184FD"/>
</svg>
