<svg viewBox="0 0 346 469" fill="none" xmlns="http://www.w3.org/2000/svg">
<path d="M98 4.87682V27.5L100 23.5L103 21.5L108.5 20H112L116.5 21L118 21.5L119.5 22.5L121.5 24L124 25.5L126 27L128 28.5L130 30L131.5 31.5L134 34L136 36L137.5 37.5L139 39.5L140.5 41.5L141.5 43L143 45L144 46.5L145 48L146 49.5L147 51L148 52.5L149 54L150 55.5L151 57L152 59L153 61L154 63L155 65.5L156.5 69L157.5 72L158.5 75.5L159 79L159.5 81.5L161 86.5L163.5 89.5L167 95.5L171 98L176 99.5H179.5L183 98.5L186.5 96L189 93L190.5 90.5L192.5 87.5L194.5 83.5L195 76.5L195.5 72L197 67.5L198.5 63L200.5 58.5L202.5 54L205 49.5L207.5 45.5L212 38.5L216 33L220.5 28.5L226 23.5L230 20L233.5 18L242 17L246.5 17.5L251.5 20.5V4.68437C251.5 1.26901 247.446 -0.643737 244.748 1.45005C237.716 6.90604 226.433 15.0425 217 19C201.777 25.3865 176.122 27.2876 173.262 27.4827C173.08 27.4951 172.916 27.4938 172.735 27.4791C169.945 27.253 145.804 25.15 131.5 19C122.417 15.0949 111.649 7.12835 104.821 1.67675C102.127 -0.47366 98 1.43028 98 4.87682Z" fill="black" stroke="black"/>
<path d="M104.5 258C108.83 253.009 114 244 114 244C114 244 113.467 246.732 113.5 248.5C113.572 252.39 115.423 254.261 116.5 258C117.339 260.913 117.833 263.333 118.5 265.5C119.167 267.667 120.011 273.693 120.5 279C120.823 282.505 120.905 284.481 121 288C121.089 291.318 121.209 293.187 121 296.5C120.739 300.634 120.13 302.906 119.5 307C118.777 311.696 119.072 314.517 117.5 319C116.344 322.296 115.596 324.206 113.5 327C111.843 329.209 110.535 330.133 108.5 332C106.252 334.062 104.482 334.682 102.5 337C100.846 338.935 101.402 341.656 99 342.5C97.7105 342.953 96.8453 342.741 95.5 342.5C93.0919 342.068 91.8593 341.09 90 339.5C87.0734 336.997 86.5129 334.542 85 331C84.0297 328.729 83.7217 327.362 83 325C81.8791 321.331 81.1364 319.283 80.5 315.5C79.3339 308.568 79.6046 304.472 80.5 297.5C80.9049 294.347 81.4554 292.632 82 289.5C82.6435 285.8 82.3123 283.563 83.5 280C84.6877 276.437 85.3468 274.159 88 271.5C90.1054 269.39 92.0841 269.246 94.5 267.5C98.8661 264.345 100.97 262.069 104.5 258Z" stroke="#F97316"/>
<path d="M238.616 258C234.286 253.009 229.116 244 229.116 244C229.116 244 229.649 246.732 229.616 248.5C229.544 252.39 227.693 254.261 226.616 258C225.777 260.913 225.283 263.333 224.616 265.5C223.95 267.667 223.105 273.693 222.616 279C222.293 282.505 222.211 284.481 222.116 288C222.027 291.318 221.907 293.187 222.116 296.5C222.377 300.634 222.986 302.906 223.616 307C224.339 311.696 224.044 314.517 225.616 319C226.772 322.296 227.52 324.206 229.616 327C231.273 329.209 232.581 330.133 234.616 332C236.864 334.062 238.634 334.682 240.616 337C242.271 338.935 241.714 341.656 244.116 342.5C245.406 342.953 246.271 342.741 247.616 342.5C250.024 342.068 251.257 341.09 253.116 339.5C256.043 336.997 256.603 334.542 258.116 331C259.086 328.729 259.395 327.362 260.116 325C261.237 321.331 261.98 319.283 262.616 315.5C263.782 308.568 263.512 304.472 262.616 297.5C262.211 294.347 261.661 292.632 261.116 289.5C260.473 285.8 260.804 283.563 259.616 280C258.428 276.437 257.769 274.159 255.116 271.5C253.011 269.39 251.032 269.246 248.616 267.5C244.25 264.345 242.146 262.069 238.616 258Z" stroke="#F97316"/>
<path d="M66 250.133C64.2426 241.346 62.0197 236.578 61.5 227.633C60.9197 217.643 64 207.133 64 202.133C64 197.132 53.8304 187.126 51 176.133C47.6407 163.085 49.5257 155.025 51 141.633C52.6015 127.085 55.3199 119.158 59.5 105.133C63.7168 90.9836 66.2424 83.0047 72.5 69.6325C81.5008 50.3983 83.7947 35.3583 101.5 23.6325C101.571 23.5855 101.643 23.5382 101.716 23.4908C107.012 20.0446 113.848 20.2736 119.259 23.5374C122.127 25.2676 125.171 27.251 127.5 29.1325C135.245 35.3895 138.735 40.0151 144.5 48.1325C150.068 55.9721 152.833 60.7437 156.5 69.6325C159.61 77.1706 157.669 83.0633 162.5 89.6325C166.804 95.4846 170.237 100.751 177.5 100.633C184.607 100.517 188.026 95.5256 192 89.6325C196.476 82.9948 193.978 77.2305 196.5 69.6325C199.418 60.8441 201.714 56.0598 206.5 48.1325C211.324 40.1421 214.134 35.4555 221 29.1325C226.26 24.2887 229.096 20.4938 236 18.6325C237.966 18.1026 240.408 17.9673 242.701 18.0062C247.4 18.0861 251.565 20.7444 254.272 24.5864C259.072 31.3972 266.804 42.753 271.5 51.6325C276.894 61.8327 279.22 67.9168 283.5 78.6325C287.348 88.269 289.034 93.8522 292.5 103.633C295.264 111.432 297.843 115.525 299.5 123.633C301.963 135.685 301.125 142.939 299.5 155.133C297.842 167.576 295.744 174.51 291 186.133C288.908 191.257 285.415 197.837 283.037 202.141C281.491 204.94 281.518 208.32 282.875 211.215C283.105 211.707 283.32 212.189 283.5 212.633C287.618 222.779 287.599 229.995 285 240.633C283.485 246.834 281.989 250.286 278.5 255.633M66 250.133C73.42 252.671 85 256.633 85 256.633M66 250.133C62.034 252.897 60.0336 255.015 57.5 259.133C53.9997 264.821 54.3312 269.088 53 275.633C48.9526 295.532 50.8736 307.437 53 327.633C54.4959 341.84 58.6382 349.372 59.5 363.633C60.1895 375.041 58.5 392.883 58.5 392.883C58.3047 398.594 58.1953 401.796 58 407.508C57.8047 413.219 59.4827 416.773 57.5 422.133C55.6165 427.224 52.9996 429.462 49 433.133C43.2711 438.391 38.3462 438.945 31.5 442.633C22.7327 447.355 9 454.633 9 454.633V454.633C5.25764 456.834 5.34574 462.276 9.1574 464.355L11.5 465.633H50.5C50.5 465.633 60.5816 458.464 68 456.133C70.3041 455.408 71.5924 454.825 74 454.633C79.0532 454.229 81.455 458.628 86.5 458.133C90.2531 457.764 92.9216 457.385 95.5 454.633C97.5334 452.462 97.8687 450.539 98.5 447.633C100.152 440.029 93.9144 436.284 92.5 428.633C90.4058 417.304 91.17 410.77 92.5 399.133C93.83 387.495 95.8714 369.633 95.8714 369.633C95.8714 369.633 97.4868 355.498 98.5 346.633C99.5132 337.767 112.343 334.254 116.5 323.633C119.18 316.785 119.117 312.432 120 305.133C121.595 291.951 121.64 284.309 120 271.133C118.69 260.603 111.823 255.018 114 244.633C115.56 237.189 119.771 234.261 123.5 227.633C129.889 216.276 132.982 209.611 140 198.633C148.057 186.029 162.5 167.633 162.5 167.633L177.5 148.133C177.5 148.133 194.729 169.655 204 184.633C211.587 196.89 215.837 203.876 221.5 217.133C225.963 227.581 231.067 233.271 231 244.633C230.944 254.208 226.09 258.788 224 268.133C221.505 279.289 219.409 285.715 220 297.133C220.517 307.116 221.119 313.147 225.5 322.133C229.817 330.987 237.48 332.64 241.5 341.633C245.299 350.131 243.925 355.957 245.5 365.133C248.385 381.933 252.337 391.099 253 408.133C253.387 418.091 254.873 424.09 252 433.633C249.91 440.573 242.339 442.978 243.5 450.133C244.394 455.645 247.066 459.017 252 461.633C257.348 464.468 261.7 463.366 267.5 461.633C271.77 460.356 273.144 457.075 277.5 456.133C286.472 454.191 293.833 465.633 299 465.633C304.167 465.633 316 465.633 316 465.633H319.5L331.25 466.133H340.5C341.881 466.133 343 465.013 343 463.633V463.633V463.633C343 461.203 341.562 459.006 339.355 457.992C337.219 457.01 334.344 455.659 331.285 454.133M319.5 447.633C310.94 442.168 306.415 438.572 299 431.633C292.44 425.493 287.269 422.788 283.5 414.633C278.257 403.289 282.93 395.116 283.5 382.633C284.66 357.226 291.402 343.542 292.5 318.133C292.997 306.623 294.275 300.015 292.5 288.633C290.929 278.561 290.522 272.2 285 263.633C282.819 260.249 281.038 258.757 278.5 255.633M319.5 447.633C322.907 449.807 327.256 452.122 331.285 454.133M319.5 447.633C319.5 447.633 326.683 451.594 331.285 454.133M278.5 255.633C275.181 256.999 270 259.133 270 259.133H257.5" stroke="#F97316" stroke-width="5"/>
<path d="M120.5 141C119.695 131.096 116.963 117.416 115.479 110.456C115.116 108.751 112.917 108.333 111.949 109.783C110.142 112.49 107.739 116.146 106 119C98.3685 131.53 94.541 138.916 89 152.5C83.9624 164.85 80.0318 171.75 78.5 185C77.6031 192.759 76.5188 197.445 78.5 205C80.2948 211.844 82.3871 215.635 87 221C91.7361 226.508 94.7472 231.594 102 232C109.158 232.401 112.711 227.839 118 223C122.322 219.046 125.006 216.508 127 211C129.327 204.574 127.971 200.265 127 193.5C125.833 185.371 122.06 181.563 120.5 173.5C118.09 161.039 121.529 153.65 120.5 141Z" stroke="#F97316"/>
<path d="M61 213C64.4694 212.437 66.5306 212.437 70 213C76.4648 214.048 79.4274 217.059 85 220.5C91.2805 224.378 94.6244 226.942 100 232" stroke="#F97316" stroke-width="5"/>
<path d="M253.5 125C253.5 125 246.481 113.924 240.984 105.382C239.923 103.732 237.374 104.44 237.312 106.401C237.07 114.159 236.605 127.385 236 137C235.373 146.969 235.353 152.603 234 162.5C233.087 169.179 232.282 172.882 231 179.5C229.252 188.524 225.8 193.31 226 202.5C226.112 207.635 225.686 210.914 228 215.5C230.805 221.059 233.997 224.346 240 226C245.114 227.409 248.601 226.533 253.5 224.5C258.173 222.561 260.792 219.645 263 216.071C264.665 213.376 266.097 210.307 268 207C271.274 201.311 272.917 197.87 274.5 191.5C276.995 181.456 276.592 175.135 274.5 165C273.551 160.403 272.665 157.889 271 153.5C266.366 141.289 253.5 125 253.5 125Z" stroke="#F97316"/>
<path d="M263 216C265.733 215.027 267.382 214.641 270.317 214.29C273.524 213.905 275.404 213.902 278.61 214.29C280.348 214.5 281.32 214.683 283 215.115" stroke="#F97316" stroke-width="5"/>
<path d="M71.5 195.5C69.0817 198.058 64 200.5 64 200.5L60.5 193L54 183L50.5 174L49 161.5L50 147.5L52 133L54 123.5L57.5 110L61.5 97.5L68 78.5L72.5 69L78 55.5L83 44C83 44 85.2566 39.6217 87 37C88.7733 34.3333 89.8754 32.8964 92 30.5C93.8319 28.4337 94.8458 27.2276 97 25.5L97.0558 25.4552C99.687 23.345 101.28 22.067 104.5 21C106.572 20.3132 110 20 110 20C110 20 103.334 32.0554 99.5 40C96.6132 45.9816 95.004 49.3483 92.5 55.5C90.3805 60.7072 89.265 63.6622 87.5 69C84.957 76.6909 83.6619 81.0719 82 89C80.7421 95.0009 80.6134 98.4706 79.5 104.5C78.4499 110.186 77.0628 113.245 76.5 119C75.8345 125.805 76.8851 129.664 77 136.5C77.164 146.262 77 151.737 77 161.5C77 169.115 78.5291 173.54 77 181C75.7839 186.933 75.6606 191.099 71.5 195.5Z" stroke="#F97316"/>
<path d="M148.5 111C152.042 104.658 157.408 96.2847 160.67 91.2903C161.667 89.7633 164.184 90.2499 164.808 91.9636C165.668 94.3237 167.01 96.8722 169 98C170.718 98.9739 173.374 99.146 175.259 99.1238C176.455 99.1097 177.5 100.049 177.5 101.245V148.5L149.5 184.5C149.5 184.5 139.686 183.932 135.5 180C130.219 175.039 131.305 169.239 131 162C130.743 155.902 131.63 152.448 133 146.5C134.677 139.217 136.522 135.355 139.5 128.5C142.562 121.452 144.753 117.71 148.5 111Z" stroke="#F97316"/>
<path d="M106.5 68.5C104.04 57.3065 99.5 40 99.5 40L91.5 58L86.5 73L83 86L81 97L78.5 109.5L76.5 118V123L77 135V146C77 146 76.5902 158.809 77 167C77.2447 171.891 78.6587 174.647 78 179.5C77.5346 182.929 75.5 188 75.5 188L78 190C78 190 79.1786 181.092 80.5 175.5C81.3389 171.95 81.7948 169.943 83 166.5C84.7032 161.634 86.4548 159.232 88.5 154.5C90.3414 150.24 91.1614 147.762 93 143.5C94.8693 139.167 95.8641 136.708 98 132.5C100.653 127.274 103.446 124.989 105.5 119.5C106.911 115.73 107.23 113.451 108 109.5C109.982 99.3257 110.647 93.3018 109.5 83C108.86 77.253 107.741 74.1477 106.5 68.5Z" stroke="#F97316"/>
<path d="M204.5 111.5C201.652 105.032 196.839 96.6795 193.795 91.5873C192.845 89.9964 190.261 90.4507 189.61 92.1857C188.747 94.4819 187.428 96.9075 185.5 98C183.782 98.9739 181.126 99.146 179.241 99.1238C178.045 99.1097 177 100.049 177 101.245V148.5L202 181C202 181 209.292 182.204 213 180C219.066 176.394 217.5 162.5 217.5 162.5C217.5 162.5 217.191 152.36 216 146C214.727 139.198 212.904 135.653 211 129C208.993 121.986 207.438 118.172 204.5 111.5Z" stroke="#F97316"/>
<path d="M275.5 191.5L281.5 202L282.5 203L287.5 194L292 183.5L295 175L298.5 163L300 151L301 139.5L300 126.5L297 115.5L291.5 100.5L286.5 86L281 72L271.5 51.5L261.5 34.5L253 23L246 18H239L234.5 20C234.5 20 244.543 34.5802 250 44.5C255.01 53.606 257.518 58.9002 261.5 68.5C264.293 75.2339 265.681 79.0883 268 86C270.142 92.3833 271.4 95.9599 273 102.5C274.839 110.015 275.624 114.313 276.5 122C278.048 135.58 276.5 157 276.5 157L275.5 178V191.5Z" stroke="#F97316"/>
<path d="M278.021 139L276.521 170L270.021 152.5L264.021 141L254.521 128L248.521 118.5C248.521 118.5 245.118 107.005 243.521 99.5C241.671 90.8022 240.215 85.8904 240.021 77C239.867 69.9479 240.568 65.9891 241.521 59C242.271 53.4971 241.791 50.0862 244.021 45C245.111 42.5158 247.521 39 247.521 39L251.021 44.5L255.521 53.5L261.521 66.5L266.521 80L272.021 96L275.521 111L277.521 125.5L278.021 139Z" stroke="#F97316"/>
</svg>
